<svg width="112" height="112" viewBox="0 0 112 112" fill="none" xmlns="http://www.w3.org/2000/svg">
<path d="M46.6667 98C41.5333 98 37.1389 96.1722 33.4833 92.5167C29.8278 88.8611 28 84.4667 28 79.3333C28 74.2 29.8278 69.8056 33.4833 66.15C37.1389 62.4944 41.5333 60.6667 46.6667 60.6667C48.4556 60.6667 50.1076 60.8798 51.6227 61.306C53.1409 61.7353 54.6 62.3778 56 63.2333V23.3333C56 20.7667 56.9147 18.5687 58.744 16.7393C60.5702 14.9131 62.7667 14 65.3333 14H74.6667C77.2333 14 79.4313 14.9131 81.2607 16.7393C83.0869 18.5687 84 20.7667 84 23.3333C84 25.9 83.0869 28.0964 81.2607 29.9227C79.4313 31.752 77.2333 32.6667 74.6667 32.6667H65.3333V79.3333C65.3333 84.4667 63.5056 88.8611 59.85 92.5167C56.1944 96.1722 51.8 98 46.6667 98Z" fill="#0B2230"/>
</svg>
