<svg width="112" height="112" viewBox="0 0 112 112" fill="none" xmlns="http://www.w3.org/2000/svg">
<path d="M56 98H45.5C31.85 98 21 87.15 21 73.5V59.5H28V73.5C28 83.3 35.7 91 45.5 91H56V98ZM98 105H105.7L89.6 66.5H81.9L65.8 105H73.5L76.3 98H94.85L98 105ZM79.45 91L85.75 75.6L92.05 91H79.45ZM98 52.5H91V38.5C91 28.7 83.3 21 73.5 21H59.5V14H73.5C87.15 14 98 24.85 98 38.5V52.5ZM49 17.5V10.5H31.5V3.5H24.5V10.5H7V17.5H35.7C35 20.65 32.9 26.25 28 31.5C25.9 29.05 24.15 26.6 23.1 24.5H15.05C16.45 28 18.9 32.2 22.4 36.05C19.6 38.5 15.4 40.6 10.5 42.35L12.95 49C19.25 46.55 24.15 43.75 28 40.95C31.85 44.1 36.75 46.9 43.05 49L45.5 42.35C40.6 40.6 36.4 38.15 33.25 36.05C39.9 29.05 42 21.7 42.7 17.5H49Z" fill="#0B2230"/>
</svg>
