<svg width="129" height="61" viewBox="0 0 129 61" fill="none" xmlns="http://www.w3.org/2000/svg">
<path d="M0 35.323C0.33913 32.4969 0.621739 29.6143 1.01739 26.7882C1.97826 20.8534 3.95652 15.4274 8.08261 10.9056C8.64783 10.2274 9.32609 9.60561 10.0043 9.09692C11.813 7.79692 13.113 8.13605 14.187 10.0578C14.6391 10.9056 15.0913 11.7534 15.4304 12.7143C16.9 17.236 20.1217 19.5534 24.813 20.1752C28.4304 20.6839 31.9348 20.6274 35.3826 19.2708C35.7217 19.1013 36.0043 18.9882 36.287 18.8187C36.5696 18.6491 36.7957 18.423 37.1348 18.1969C36.5696 17.7447 36.1174 17.3491 35.6652 16.9534C34.5913 16.1056 33.4043 15.3143 32.4435 14.2969C30.6348 12.4317 30.5783 10.7926 32.1043 8.75779C33.913 6.27083 35.7783 3.78387 37.6435 1.35344C38.7739 -0.116127 39.8478 -0.342213 41.5435 0.449092C47.8174 3.44474 54.0913 6.49692 60.3652 9.49257C61.0435 9.8317 61.5522 9.94475 62.287 9.43605C65.4522 7.34474 69.5217 9.37953 69.9174 13.1665C69.9739 13.6187 70.3696 14.1839 70.7652 14.4665C72.0087 15.2578 73.1956 15.6534 74.8348 14.9752C77.0956 14.0143 80.0348 15.6534 80.6 18.1404C80.8826 19.3839 81.6174 19.836 82.5783 20.2882C83.6522 20.7969 84.5 21.1926 85.8 20.4578C88.6261 18.9882 92.0174 20.9665 92.4696 24.1317C92.5826 25.0361 93.0348 25.3752 93.713 25.8274C101.174 30.1795 109.313 32.6665 117.509 35.0969C119.883 35.7752 122.143 36.8491 124.291 38.0926C129.209 40.8621 129.096 46.1187 126.665 49.9621C124.348 53.6926 120.73 55.8969 116.83 57.6491C111.574 59.91 106.035 61.0969 100.326 60.9839C81.6174 60.5317 62.9652 60.023 44.2565 59.5708C32.9522 59.2882 21.7043 59.0056 10.4 58.723C9.15652 58.6665 7.85652 58.61 6.61304 58.4969C2.76956 58.0447 0.791304 55.9534 0.395652 51.8839C0.169565 50.5274 0.113043 49.2839 0 47.9839C0 43.7447 0 39.5621 0 35.323ZM31.2 49.4534C31.7087 49.623 31.8783 49.6795 32.1043 49.6795C34.7609 49.623 37.4174 49.623 40.0739 49.51C40.6957 49.4534 41.4304 49.0578 41.9391 48.6056C49.6826 41.5969 57.4261 34.5882 65.1696 27.5795C65.5087 27.2969 65.7913 27.0143 66.0739 26.6752C66.6391 25.9969 66.5261 25.5447 65.6217 25.3187C64.4913 25.0361 63.4174 24.7534 62.3435 24.4143C60.6478 23.8491 59.2348 24.2447 57.9348 25.4317C49.4 33.0056 40.8652 40.5795 32.3304 48.21C31.9348 48.4926 31.7087 48.8882 31.2 49.4534ZM50.9261 49.5665C51.6044 49.623 52 49.736 52.3957 49.736C54.3174 49.736 56.2957 49.736 58.2174 49.736C59.4609 49.736 60.4783 49.3404 61.4391 48.4926C67.5435 42.8969 73.6478 37.3013 79.7522 31.7056C80.1478 31.3665 80.4304 30.9143 80.9391 30.236C79.0739 29.7274 77.4348 29.3317 75.8522 28.823C74.6087 28.4274 73.5913 28.71 72.5739 29.5578C65.7348 35.7752 58.8391 41.9361 52 48.1534C51.6609 48.5491 51.4348 48.9447 50.9261 49.5665Z" fill="#70C172"/>
</svg>
